<svg aria-hidden="true" role="graphics-symbol" viewBox="0 0 20 20" class="mail" style="width: 20px; height: 20px; display: block; fill: rgba(71, 70, 68, 0.6); flex-shrink: 0;" xmlns="http://www.w3.org/2000/svg"><path fill-rule="evenodd" d="M17.4685918,3.4486694c-.276062-.4232178-.7411499-.6759033-1.2441406-.6759033-.1889648,0-.3743896.0357056-.5512085.1061401L3.0777837,7.8930664c-.40271.1603394-.6936035.5178223-.7687378.9447021s.0762329.8622437.4000244,1.1503906l2.4732056,2.2012329v4.2337646c0,.6617432.793457,1.0004272,1.2713013.5426636l1.9723511-1.8895264,2.0613403,1.8346558c.2311401.2056885.52771.3162842.8310547.3162842.088501,0,.1775513-.0094604.2657471-.0286255.390625-.0849609.71698-.3516235.8781738-.7174683l5.1207275-11.6225586c.2032471-.4614868.1604614-.9884644-.1143799-1.4099121ZM16.4390508,4.3546143l-5.1207275,11.6225586-3.963623-3.52771,5.2460327-5.0794067c.064209-.065918.0716553-.168457.0177002-.243042-.0568237-.0785522-.1638184-.1014404-.2478638-.0530396l-6.562439,3.9990234-2.2680054-2.0185547,12.5956421-5.0142822c.0299683-.0119019.0598755-.017395.0886841-.017395.15979,0,.2867432.1680908.2145996.3318481Z" clip-rule="evenodd"></path></svg>