<svg aria-hidden="true" role="graphics-symbol" viewBox="0 0 20 20" class="calendarDate21" style="width: 20px; height: 20px; display: block; fill: rgba(71, 70, 68, 0.6); flex-shrink: 0; color: rgba(71, 70, 68, 0.6);" xmlns="http://www.w3.org/2000/svg"><path d="M5.61218 4.0799C4.73322 4.18671 4.02924 4.93207 3.97064 5.81104L3.96588 5.9032L3.96729 15.342L3.10266 15.3953H3.06824C2.85229 15.3841 2.65259 15.2995 2.49689 15.1501C2.32245 14.9828 2.22455 14.7541 2.21741 14.5035C2.21741 14.4936 2.21606 14.4837 2.21606 14.4731V4.13733C2.21606 3.25684 2.90002 2.52771 3.77881 2.47156L13.9657 1.82074C13.9833 1.81946 14.0008 1.81873 14.0183 1.81873C14.2174 1.81873 14.4028 1.89215 14.5449 2.02765C14.6442 2.12225 14.7142 2.24054 14.7517 2.37207C14.7679 2.42828 14.7777 2.48712 14.7816 2.5473L14.7817 3.49023L5.64923 4.07343L5.61218 4.0799ZM17.784 16.7507C17.784 16.7665 17.7827 16.7824 17.7814 16.7983C17.7587 17.1375 17.4935 17.4362 17.1673 17.4976C17.1608 17.4976 17.1543 17.4996 17.1478 17.4996L6.10248 18.1812H6.06805C5.85211 18.17 5.6524 18.0854 5.49677 17.936C5.32233 17.7687 5.22437 17.54 5.21722 17.2894C5.21722 17.2795 5.21588 17.2696 5.21588 17.259V6.07227C5.21588 6.05646 5.21588 6.0412 5.21722 6.02533C5.24121 5.66638 5.53564 5.35303 5.88715 5.31604C5.89624 5.31604 5.90533 5.31335 5.91443 5.31268L16.9655 4.60663C16.9831 4.60535 17.0006 4.60468 17.0181 4.60468C17.2172 4.60468 17.4026 4.67804 17.5447 4.8136C17.644 4.90814 17.714 5.02643 17.7516 5.15802C17.7678 5.21417 17.7775 5.27301 17.7814 5.33319L17.784 16.7507ZM16.5358 8.02374C16.5358 7.7887 16.3475 7.61896 16.1176 7.63098L6.90546 8.19415C6.67493 8.20618 6.46613 8.37146 6.46613 8.62994V16.1628C6.45618 16.6468 6.77686 16.7722 7.1391 16.7462L16.0001 16.2205L16.002 16.2199C16.468 16.2015 16.5358 15.8461 16.5358 15.57V8.02374ZM9.27607 10.3914C8.8272 10.4193 8.69223 10.7762 8.71008 11.3242C8.32897 11.4352 8.04122 11.1918 8.04063 10.6776C8.04003 9.9984 8.63159 9.36016 9.85101 9.28416C10.8837 9.22003 11.596 9.82918 11.5972 10.6651C11.5984 11.5361 11.1417 12.1744 9.96575 13.3452L9.33136 13.9769C10.508 13.93 11.2874 13.8202 11.6513 13.5714C11.8041 13.7097 11.8885 13.914 11.8891 14.1752C11.8891 14.7066 11.3058 15.048 10.7214 15.0842C10.1542 15.1192 7.8599 15.1929 7.8599 15.1929L7.73206 14.7042L8.84801 13.2846C9.60902 12.3139 9.99785 11.7932 9.99726 11.1835C9.99726 10.6782 9.71604 10.3641 9.27607 10.3914ZM13.0098 10.0631C12.1632 10.3077 11.9765 9.93546 12.0692 9.5466C12.577 9.42785 13.8975 9.03185 14.3969 8.85313L14.4028 14.0713L15.3261 14.2055C15.3261 14.5451 15.1317 14.7577 14.7851 14.7796C14.4973 14.7975 13.8285 14.8218 13.5068 14.842C13.0074 14.8729 12.093 14.9477 12.093 14.9477C12.0674 14.8794 12.0591 14.8105 12.0591 14.7494C12.0591 14.5837 12.1263 14.4139 12.3469 14.3397L13.0157 14.1236L13.011 10.0637L13.0098 10.0631Z"></path></svg>