<svg aria-hidden="true" role="graphics-symbol" viewBox="0 0 16 16" class="arrowExpandDiagonalBottomLeftToTopRightSmall" style="width: 16px; height: 16px; display: block; fill: rgba(71, 70, 68, 0.6); flex-shrink: 0;" xmlns="http://www.w3.org/2000/svg"><path d="M8.912 2.463a.625.625 0 1 0 0 1.25h2.491L8.358 6.758a.625.625 0 1 0 .884.884l3.045-3.045v2.49a.625.625 0 1 0 1.25 0v-4a.625.625 0 0 0-.625-.624zM7.64 8.36a.625.625 0 0 0-.885 0l-3.042 3.043V8.912a.625.625 0 1 0-1.25 0v4c0 .345.28.625.625.625h4a.625.625 0 0 0 0-1.25H4.597l3.042-3.043a.625.625 0 0 0 0-.883"></path></svg>