<svg aria-hidden="true" role="graphics-symbol" viewBox="0 0 20 20" class="viewCalendar" style="width: 20px; height: 20px; display: block; fill: rgb(50, 48, 44); flex-shrink: 0; margin-right: 6px;" xmlns="http://www.w3.org/2000/svg"><path d="M9.537 8.843a.694.694 0 1 1-1.39 0 .694.694 0 0 1 1.39 0m-.695 3.009a.694.694 0 1 0 0-1.389.694.694 0 0 0 0 1.389m.695 1.62a.695.695 0 1 1-1.39 0 .695.695 0 0 1 1.39 0m1.62-3.935a.694.694 0 1 0 0-1.389.694.694 0 0 0 0 1.389m.695 1.621a.694.694 0 1 1-1.39 0 .694.694 0 0 1 1.39 0m-.695 3.009a.695.695 0 1 0 0-1.39.695.695 0 0 0 0 1.39m3.01-5.324a.694.694 0 1 1-1.39 0 .694.694 0 0 1 1.39 0m-7.639 3.009a.694.694 0 1 0 0-1.389.694.694 0 0 0 0 1.389m.694 1.62a.695.695 0 1 1-1.389 0 .695.695 0 0 1 1.39 0m6.249-1.62a.694.694 0 1 0 0-1.389.694.694 0 0 0 0 1.389"></path><path d="M5.25 3.125A2.125 2.125 0 0 0 3.125 5.25v9.5c0 1.174.951 2.125 2.125 2.125h9.5a2.125 2.125 0 0 0 2.125-2.125v-9.5a2.125 2.125 0 0 0-2.125-2.125zm-.875 3.69h11.25v7.935a.875.875 0 0 1-.875.875h-9.5a.875.875 0 0 1-.875-.875z"></path></svg>