<svg aria-hidden="true" role="graphics-symbol" viewBox="0 0 16 16" class="arrowUpDownSmall directional-icon" style="width: 16px; height: 16px; display: block; fill: rgba(71, 70, 68, 0.6); flex-shrink: 0; transform: rotate(180deg);" xmlns="http://www.w3.org/2000/svg"><path d="M11.349 2.672a.625.625 0 0 0-.884 0L7.666 5.471a.625.625 0 1 0 .884.883l1.732-1.73v8.262a.625.625 0 1 0 1.25 0V4.623l1.73 1.731a.625.625 0 0 0 .885-.883zM5.093 2.49a.625.625 0 0 0-.625.624v8.263l-1.73-1.731a.625.625 0 1 0-.885.883l2.798 2.799c.244.244.64.244.884 0l2.798-2.798a.625.625 0 0 0-.883-.884l-1.732 1.73V3.115a.625.625 0 0 0-.625-.625"></path></svg>